<svg xmlns="http://www.w3.org/2000/svg" width="900" height="460" font-family="sans-serif">
<line x1="60" y1="40" x2="60" y2="410" stroke="#333"/>
<line x1="60" y1="410" x2="840" y2="410" stroke="#333"/>
<text x="450" y="24" text-anchor="middle" font-size="18" font-weight="bold">念包: 神经元与 SELF 通道增长曲线</text>
<polyline fill="none" stroke="#2c7fb8" stroke-width="2" points="60.0,328.7 67.9,324.6 75.8,320.5 83.6,316.5 91.5,316.5 99.4,312.4 107.3,308.4 115.2,308.4 123.0,304.3 130.9,304.3 138.8,300.2 146.7,296.2 154.5,296.2 162.4,292.1 170.3,288.0 178.2,288.0 186.1,284.0 193.9,284.0 201.8,279.9 209.7,275.8 217.6,275.8 225.5,271.8 233.3,267.7 241.2,263.6 249.1,263.6 257.0,259.6 264.8,259.6 272.7,255.5 280.6,251.4 288.5,251.4 296.4,247.4 304.2,243.3 312.1,243.3 320.0,239.2 327.9,235.2 335.8,235.2 343.6,231.1 351.5,231.1 359.4,227.0 367.3,223.0 375.2,223.0 383.0,218.9 390.9,218.9 398.8,214.8 406.7,210.8 414.5,206.7 422.4,206.7 430.3,202.6 438.2,202.6 446.1,202.6 453.9,198.6 461.8,194.5 469.7,194.5 477.6,190.4 485.5,186.4 493.3,186.4 501.2,182.3 509.1,178.2 517.0,178.2 524.8,174.2 532.7,174.2 540.6,170.1 548.5,166.0 556.4,162.0 564.2,162.0 572.1,162.0 580.0,157.9 587.9,153.8 595.8,153.8 603.6,149.8 611.5,149.8 619.4,145.7 627.3,145.7 635.2,141.6 643.0,137.6 650.9,133.5 658.8,133.5 666.7,129.5 674.5,125.4 682.4,125.4 690.3,121.3 698.2,117.3 706.1,117.3 713.9,113.2 721.8,113.2 729.7,109.1 737.6,105.1 745.5,101.0 753.3,101.0 761.2,96.9 769.1,92.9 777.0,92.9 784.8,92.9 792.7,88.8 800.6,84.7 808.5,84.7 816.4,80.7 824.2,80.7 832.1,76.6 840.0,72.5"/>
<polyline fill="none" stroke="#d95f0e" stroke-width="2" points="60.0,410.0 67.9,373.0 75.8,336.0 83.6,299.0 91.5,299.0 99.4,299.0 107.3,299.0 115.2,299.0 123.0,299.0 130.9,299.0 138.8,299.0 146.7,299.0 154.5,299.0 162.4,299.0 170.3,299.0 178.2,299.0 186.1,299.0 193.9,299.0 201.8,262.0 209.7,262.0 217.6,262.0 225.5,262.0 233.3,262.0 241.2,262.0 249.1,262.0 257.0,262.0 264.8,262.0 272.7,262.0 280.6,262.0 288.5,262.0 296.4,262.0 304.2,262.0 312.1,262.0 320.0,225.0 327.9,225.0 335.8,225.0 343.6,225.0 351.5,225.0 359.4,225.0 367.3,225.0 375.2,225.0 383.0,225.0 390.9,225.0 398.8,225.0 406.7,225.0 414.5,225.0 422.4,225.0 430.3,225.0 438.2,225.0 446.1,225.0 453.9,188.0 461.8,188.0 469.7,188.0 477.6,188.0 485.5,188.0 493.3,188.0 501.2,188.0 509.1,188.0 517.0,188.0 524.8,188.0 532.7,188.0 540.6,188.0 548.5,188.0 556.4,188.0 564.2,188.0 572.1,188.0 580.0,151.0 587.9,151.0 595.8,151.0 603.6,151.0 611.5,151.0 619.4,151.0 627.3,151.0 635.2,151.0 643.0,151.0 650.9,151.0 658.8,151.0 666.7,151.0 674.5,151.0 682.4,151.0 690.3,151.0 698.2,114.0 706.1,114.0 713.9,114.0 721.8,114.0 729.7,114.0 737.6,114.0 745.5,114.0 753.3,114.0 761.2,114.0 769.1,114.0 777.0,114.0 784.8,114.0 792.7,114.0 800.6,114.0 808.5,114.0 816.4,114.0 824.2,114.0 832.1,77.0 840.0,77.0"/>
<text x="50" y="225" transform="rotate(-90 50 225)" text-anchor="middle" fill="#2c7fb8">隐层神经元</text>
<text x="885" y="225" transform="rotate(90 885 225)" text-anchor="middle" fill="#d95f0e">SELF 通道</text>
<text x="450" y="448" text-anchor="middle">世代</text>
<rect x="70" y="50" width="12" height="12" fill="#2c7fb8"/><text x="88" y="60" font-size="13">神经元</text>
<rect x="150" y="50" width="12" height="12" fill="#d95f0e"/><text x="168" y="60" font-size="13">SELF</text>
</svg>
